<?xml version="1.0" encoding="UTF-8" standalone="no"?>
<svg width="308px" height="84px" viewBox="0 0 308 84" version="1.1" xmlns="http://www.w3.org/2000/svg" xmlns:xlink="http://www.w3.org/1999/xlink">
    <!-- Generator: Sketch 48 (47235) - http://www.bohemiancoding.com/sketch -->
    <title>nav-logo</title>
    <desc>Created with Sketch.</desc>
    <defs></defs>
    <g id="Page-1" stroke="none" stroke-width="1" fill="none" fill-rule="evenodd">
        <g id="nav-logo" fill="#FFFFFF">
            <path d="M39.704,50 L39.704,24.464 L29.08,42 C28.9519994,42.2560013 28.7386682,42.4266662 28.44,42.512 C28.1413318,42.5973338 27.8853344,42.64 27.672,42.64 C27.4159987,42.64 27.1386682,42.5973338 26.84,42.512 C26.5413318,42.4266662 26.3280006,42.2560013 26.2,42 L15.576,24.464 L15.576,50 L2.584,50 L2.584,0.336 L14.744,0.336 C15.1706688,0.336 15.5333318,0.52799808 15.832,0.912 L27.608,20.56 L39.448,0.912 C39.7466682,0.52799808 40.0879981,0.336 40.472,0.336 L52.696,0.336 L52.696,50 L39.704,50 Z M56.888,50 L56.888,0.336 L70.264,0.336 L70.264,50 L56.888,50 Z M106.136,50 L97.496,34.64 L89.112,34.64 L89.176,50 L75.48,50 L75.48,0.336 L100.376,0.336 C101.570673,0.336 102.78666,0.55999776 104.024,1.008 C105.26134,1.45600224 106.455994,2.0533296 107.608,2.8 C108.760006,3.5466704 109.826662,4.38932864 110.808,5.328 C111.789338,6.26667136 112.62133,7.22666176 113.304,8.208 C114.157338,9.44533952 114.807998,10.8853251 115.256,12.528 C115.704002,14.1706749 115.928,15.7386592 115.928,17.232 C115.928,19.706679 115.352006,22.010656 114.2,24.144 C113.047994,26.277344 111.44801,28.0693261 109.4,29.52 L121.048,50 L106.136,50 Z M96.472,11.344 L88.728,11.344 L88.728,22.096 L96.472,22.096 C97.2400038,22.096 97.9653299,21.9573347 98.648,21.68 C99.3306701,21.4026653 99.9279974,21.0186691 100.44,20.528 C100.952003,20.0373309 101.357332,19.4720032 101.656,18.832 C101.954668,18.1919968 102.104,17.4880038 102.104,16.72 C102.104,15.9519962 101.954668,15.2480032 101.656,14.608 C101.357332,13.9679968 100.952003,13.4026691 100.44,12.912 C99.9279974,12.4213309 99.3306701,12.0373347 98.648,11.76 C97.9653299,11.4826653 97.2400038,11.344 96.472,11.344 Z M153.336,50 L150.776,43.152 L135.48,43.152 L132.92,50 L118.904,50 L137.272,0.336 L148.984,0.336 L167.352,50 L153.336,50 Z M143.16,18.512 L139.192,31.632 L147.064,31.632 L143.16,18.512 Z M197.784,49.936 L180.568,23.44 L180.568,49.936 L167.32,49.936 L167.32,0.336 L180.504,0.336 L197.784,27.088 L197.784,0.336 L211.096,0.336 L211.096,49.936 L197.784,49.936 Z M238.264,50 L216.056,50 L216.056,0.336 L238.264,0.336 C241.720017,0.336 244.962652,0.98666016 247.992,2.288 C251.021348,3.58933984 253.666655,5.3599888 255.928,7.6 C258.189345,9.8400112 259.97066,12.4746515 261.272,15.504 C262.57334,18.5333485 263.224,21.7546496 263.224,25.168 C263.224,28.5813504 262.57334,31.8026515 261.272,34.832 C259.97066,37.8613485 258.189345,40.4959888 255.928,42.736 C253.666655,44.9760112 251.021348,46.7466602 247.992,48.048 C244.962652,49.3493398 241.720017,50 238.264,50 Z M236.728,12.432 L229.112,12.432 L229.112,37.904 L236.728,37.904 C238.520009,37.904 240.194659,37.5733366 241.752,36.912 C243.309341,36.2506634 244.663994,35.3440058 245.816,34.192 C246.968006,33.0399942 247.874663,31.6853411 248.536,30.128 C249.197337,28.5706589 249.528,26.9173421 249.528,25.168 C249.528,23.4186579 249.197337,21.7653411 248.536,20.208 C247.874663,18.6506589 246.968006,17.2960058 245.816,16.144 C244.663994,14.9919942 243.309341,14.0853366 241.752,13.424 C240.194659,12.7626634 238.520009,12.432 236.728,12.432 Z M292.632,50 L290.072,43.152 L274.776,43.152 L272.216,50 L258.2,50 L276.568,0.336 L288.28,0.336 L306.648,50 L292.632,50 Z M282.456,18.512 L278.488,31.632 L286.36,31.632 L282.456,18.512 Z" id="MIRANDA"></path>
            <path d="M19.7109375,70.6318359 C19.7109375,74.6383664 18.623546,77.701324 16.4487305,79.8208008 C14.2739149,81.9402775 11.1445517,83 7.06054688,83 L0.336914062,83 L0.336914062,58.7285156 L7.77441406,58.7285156 C11.5485215,58.7285156 14.4814349,59.7744036 16.5732422,61.8662109 C18.6650495,63.9580183 19.7109375,66.8798641 19.7109375,70.6318359 Z M16.7226562,70.7314453 C16.7226562,67.5660649 15.9285561,65.1809976 14.340332,63.5761719 C12.7521079,61.9713461 10.3919427,61.1689453 7.25976563,61.1689453 L3.15917969,61.1689453 L3.15917969,80.5595703 L6.59570313,80.5595703 C9.96030328,80.5595703 12.4892493,79.7322674 14.1826172,78.0776367 C15.875985,76.423006 16.7226562,73.9743001 16.7226562,70.7314453 Z M36.5283203,83 L22.9980469,83 L22.9980469,58.7285156 L36.5283203,58.7285156 L36.5283203,61.2353516 L25.8203125,61.2353516 L25.8203125,69.0546875 L35.8808594,69.0546875 L35.8808594,71.5449219 L25.8203125,71.5449219 L25.8203125,80.4765625 L36.5283203,80.4765625 L36.5283203,83 Z M39.7822266,83 L39.7822266,58.7285156 L42.6044922,58.7285156 L42.6044922,80.4433594 L53.3125,80.4433594 L53.3125,83 L39.7822266,83 Z M55.3046875,83 L55.3046875,58.7285156 L58.1269531,58.7285156 L58.1269531,83 L55.3046875,83 Z M76.5214844,58.7285156 L79.5595703,58.7285156 L70.8105469,83 L68.0214844,83 L59.3222656,58.7285156 L62.3105469,58.7285156 L67.8886719,74.4335938 C68.5306022,76.2376392 69.0397117,77.9918535 69.4160156,79.6962891 C69.8144551,77.9033113 70.3346322,76.1158943 70.9765625,74.3339844 L76.5214844,58.7285156 Z M94.3017578,83 L80.7714844,83 L80.7714844,58.7285156 L94.3017578,58.7285156 L94.3017578,61.2353516 L83.59375,61.2353516 L83.59375,69.0546875 L93.6542969,69.0546875 L93.6542969,71.5449219 L83.59375,71.5449219 L83.59375,80.4765625 L94.3017578,80.4765625 L94.3017578,83 Z M100.37793,72.90625 L100.37793,83 L97.5556641,83 L97.5556641,58.7285156 L104.212891,58.7285156 C107.190119,58.7285156 109.389804,59.2984969 110.812012,60.4384766 C112.234219,61.5784562 112.945312,63.2939339 112.945312,65.5849609 C112.945312,68.7946124 111.318376,70.9638615 108.064453,72.0927734 L114.655273,83 L111.318359,83 L105.441406,72.90625 L100.37793,72.90625 Z M100.37793,70.4824219 L104.246094,70.4824219 C106.238291,70.4824219 107.699214,70.0867553 108.628906,69.2954102 C109.558598,68.5040651 110.023438,67.3170652 110.023438,65.734375 C110.023438,64.1295493 109.550298,62.9729853 108.604004,62.2646484 C107.65771,61.5563116 106.138682,61.2021484 104.046875,61.2021484 L100.37793,61.2021484 L100.37793,70.4824219 Z M122.624023,70.8642578 L129.098633,58.7285156 L132.15332,58.7285156 L124.051758,73.5869141 L124.051758,83 L121.196289,83 L121.196289,73.7197266 L113.111328,58.7285156 L116.199219,58.7285156 L122.624023,70.8642578 Z M153.768555,76.5419922 C153.768555,78.6780706 152.993823,80.343744 151.444336,81.5390625 C149.894849,82.734381 147.792005,83.3320312 145.135742,83.3320312 C142.258124,83.3320312 140.044604,82.9612667 138.495117,82.2197266 L138.495117,79.4970703 C139.491216,79.9176453 140.57584,80.2496733 141.749023,80.4931641 C142.922206,80.7366549 144.084304,80.8583984 145.235352,80.8583984 C147.116871,80.8583984 148.533524,80.5014684 149.485352,79.7875977 C150.437179,79.0737269 150.913086,78.08041 150.913086,76.8076172 C150.913086,75.9664671 150.744305,75.2775092 150.406738,74.7407227 C150.069171,74.2039361 149.504724,73.7086611 148.713379,73.2548828 C147.922034,72.8011045 146.718433,72.2864612 145.102539,71.7109375 C142.844715,70.9029908 141.231613,69.9456436 140.263184,68.8388672 C139.294754,67.7320908 138.810547,66.2877693 138.810547,64.5058594 C138.810547,62.6354073 139.513339,61.1468154 140.918945,60.0400391 C142.324551,58.9332627 144.183908,58.3798828 146.49707,58.3798828 C148.909843,58.3798828 151.128896,58.8225867 153.154297,59.7080078 L152.274414,62.1650391 C150.271149,61.323889 148.323252,60.9033203 146.430664,60.9033203 C144.936516,60.9033203 143.768884,61.2242806 142.927734,61.8662109 C142.086584,62.5081412 141.666016,63.3990828 141.666016,64.5390625 C141.666016,65.3802125 141.820962,66.0691705 142.130859,66.605957 C142.440757,67.1427436 142.963701,67.6352517 143.699707,68.0834961 C144.435713,68.5317405 145.561841,69.0270155 147.078125,69.5693359 C149.623711,70.4768926 151.375158,71.4508412 152.33252,72.4912109 C153.289881,73.5315807 153.768555,74.8818276 153.768555,76.5419922 Z M170.137695,83 L156.607422,83 L156.607422,58.7285156 L170.137695,58.7285156 L170.137695,61.2353516 L159.429688,61.2353516 L159.429688,69.0546875 L169.490234,69.0546875 L169.490234,71.5449219 L159.429688,71.5449219 L159.429688,80.4765625 L170.137695,80.4765625 L170.137695,83 Z M176.213867,72.90625 L176.213867,83 L173.391602,83 L173.391602,58.7285156 L180.048828,58.7285156 C183.026057,58.7285156 185.225742,59.2984969 186.647949,60.4384766 C188.070157,61.5784562 188.78125,63.2939339 188.78125,65.5849609 C188.78125,68.7946124 187.154313,70.9638615 183.900391,72.0927734 L190.491211,83 L187.154297,83 L181.277344,72.90625 L176.213867,72.90625 Z M176.213867,70.4824219 L180.082031,70.4824219 C182.074229,70.4824219 183.535152,70.0867553 184.464844,69.2954102 C185.394536,68.5040651 185.859375,67.3170652 185.859375,65.734375 C185.859375,64.1295493 185.386235,62.9729853 184.439941,62.2646484 C183.493648,61.5563116 181.97462,61.2021484 179.882812,61.2021484 L176.213867,61.2021484 L176.213867,70.4824219 Z M206.146484,58.7285156 L209.18457,58.7285156 L200.435547,83 L197.646484,83 L188.947266,58.7285156 L191.935547,58.7285156 L197.513672,74.4335938 C198.155602,76.2376392 198.664712,77.9918535 199.041016,79.6962891 C199.439455,77.9033113 199.959632,76.1158943 200.601562,74.3339844 L206.146484,58.7285156 Z M210.396484,83 L210.396484,58.7285156 L213.21875,58.7285156 L213.21875,83 L210.396484,83 Z M228.143555,60.9033203 C225.476224,60.9033203 223.370613,61.791495 221.82666,63.5678711 C220.282707,65.3442472 219.510742,67.7763517 219.510742,70.8642578 C219.510742,74.040706 220.255038,76.4949458 221.743652,78.2270508 C223.232267,79.9591558 225.354478,80.8251953 228.110352,80.8251953 C229.803719,80.8251953 231.735015,80.5208364 233.904297,79.9121094 L233.904297,82.3857422 C232.221997,83.0166047 230.146822,83.3320312 227.678711,83.3320312 C224.103823,83.3320312 221.345225,82.2474067 219.402832,80.078125 C217.46044,77.9088433 216.489258,74.8265174 216.489258,70.8310547 C216.489258,68.3297401 216.956864,66.1383558 217.89209,64.2568359 C218.827316,62.3753161 220.177563,60.9254608 221.942871,59.9072266 C223.708179,58.8889923 225.786121,58.3798828 228.176758,58.3798828 C230.722343,58.3798828 232.946931,58.8447219 234.850586,59.7744141 L233.655273,62.1982422 C231.818025,61.3349566 229.980803,60.9033203 228.143555,60.9033203 Z M250.605469,83 L237.075195,83 L237.075195,58.7285156 L250.605469,58.7285156 L250.605469,61.2353516 L239.897461,61.2353516 L239.897461,69.0546875 L249.958008,69.0546875 L249.958008,71.5449219 L239.897461,71.5449219 L239.897461,80.4765625 L250.605469,80.4765625 L250.605469,83 Z M260.566406,83 L260.566406,58.7285156 L263.388672,58.7285156 L263.388672,80.4433594 L274.09668,80.4433594 L274.09668,83 L260.566406,83 Z M276.088867,83 L276.088867,58.7285156 L278.911133,58.7285156 L278.911133,80.4433594 L289.619141,80.4433594 L289.619141,83 L276.088867,83 Z M301.323242,60.9033203 C298.655911,60.9033203 296.550301,61.791495 295.006348,63.5678711 C293.462395,65.3442472 292.69043,67.7763517 292.69043,70.8642578 C292.69043,74.040706 293.434726,76.4949458 294.92334,78.2270508 C296.411954,79.9591558 298.534166,80.8251953 301.290039,80.8251953 C302.983407,80.8251953 304.914703,80.5208364 307.083984,79.9121094 L307.083984,82.3857422 C305.401684,83.0166047 303.32651,83.3320312 300.858398,83.3320312 C297.283511,83.3320312 294.524912,82.2474067 292.58252,80.078125 C290.640127,77.9088433 289.668945,74.8265174 289.668945,70.8310547 C289.668945,68.3297401 290.136551,66.1383558 291.071777,64.2568359 C292.007003,62.3753161 293.35725,60.9254608 295.122559,59.9072266 C296.887867,58.8889923 298.965808,58.3798828 301.356445,58.3798828 C303.902031,58.3798828 306.126618,58.8447219 308.030273,59.7744141 L306.834961,62.1982422 C304.997712,61.3349566 303.160491,60.9033203 301.323242,60.9033203 Z" id="DELIVERY-SERVICE-LLC"></path>
        </g>
    </g>
</svg>